<?xml version="1.0" standalone="no"?><!-- Generator: Gravit.io --><svg xmlns="http://www.w3.org/2000/svg" xmlns:xlink="http://www.w3.org/1999/xlink" style="isolation:isolate" viewBox="0 0 141.211 35.303" width="141.211" height="35.303"><defs><clipPath id="_clipPath_UDQX42q3CQUhmHHTXV6kZe5GkTYXEI40"><rect width="141.211" height="35.303"/></clipPath></defs><g clip-path="url(#_clipPath_UDQX42q3CQUhmHHTXV6kZe5GkTYXEI40)"><clipPath id="_clipPath_4yYs7ELQZSUMRKeYtesS1qYBkpOGwlY4"><path d=" M 0 0 L 0 35.303 L 141.211 35.303 L 141.211 0 L 0 0 Z " fill="rgb(255,255,255)"/></clipPath><g clip-path="url(#_clipPath_4yYs7ELQZSUMRKeYtesS1qYBkpOGwlY4)"><path d=" M 141.211 35.303 L 0 35.303 L 0 0 L 141.211 0 L 141.211 35.303 Z " fill="rgb(86,171,88)"/></g><clipPath id="_clipPath_dESzmblcRwMNIBpm5nrW35BX16rzdfWK"><path d=" M 0 0 L 0 35.303 L 141.211 35.303 L 141.211 0 L 0 0 Z " fill="rgb(255,255,255)"/></clipPath><g clip-path="url(#_clipPath_dESzmblcRwMNIBpm5nrW35BX16rzdfWK)"><path d=" M 38.396 19.131 L 38.396 15.522 C 41.426 15.269 41.402 19.426 38.396 19.131 Z  M 42.804 14.008 C 41.683 12.909 40.157 12.604 38.224 12.531 C 38.224 12.531 35.609 12.581 34.953 12.581 L 34.953 21.983 C 37.05 21.983 39.957 22.171 41.418 21.564 C 44.137 20.431 45.099 16.262 42.804 14.008 Z " fill="rgb(254,254,254)"/></g><clipPath id="_clipPath_lf3fpRTfh5mVRgxvayq1SSlZC797HJFj"><path d=" M 0 0 L 0 35.303 L 141.211 35.303 L 141.211 0 L 0 0 Z " fill="rgb(255,255,255)"/></clipPath><g clip-path="url(#_clipPath_lf3fpRTfh5mVRgxvayq1SSlZC797HJFj)"><path d=" M 92.716 12.691 L 96.075 12.691 C 97.733 15.888 98.929 17.477 98.929 17.477 L 98.929 12.691 C 100.024 12.691 101.159 12.704 102.258 12.704 C 102.258 15.04 102.245 18.409 102.245 22.012 L 98.762 22.012 C 98.192 21.045 97.095 19.12 96.062 17.561 C 96.062 18.337 96.077 20.891 96.075 22.012 L 92.716 22.012 C 92.69 20.745 92.765 15.029 92.716 12.691 Z " fill="rgb(254,254,254)"/></g><clipPath id="_clipPath_wNOxXyM4P8S96re1A9HpH0q5AWyUzOcL"><path d=" M 0 0 L 0 35.303 L 141.211 35.303 L 141.211 0 L 0 0 Z " fill="rgb(255,255,255)"/></clipPath><g clip-path="url(#_clipPath_wNOxXyM4P8S96re1A9HpH0q5AWyUzOcL)"><path d=" M 22.748 12.779 L 19.284 18.864 L 26.343 18.864 L 22.809 12.651 L 22.748 12.779 Z  M 24.676 9.4 L 30.257 18.864 L 28.225 21.981 L 16.935 21.981 L 15.128 18.959 L 19.154 12.574 L 22.618 12.574 L 22.796 12.566 L 21.082 9.4 L 24.676 9.4 Z " fill="rgb(254,254,254)"/></g><clipPath id="_clipPath_CI7GaDa7lG9jkJWvaJ1tE4DzrpDN3ZY1"><path d=" M 0 0 L 0 35.303 L 141.211 35.303 L 141.211 0 L 0 0 Z " fill="rgb(255,255,255)"/></clipPath><g clip-path="url(#_clipPath_CI7GaDa7lG9jkJWvaJ1tE4DzrpDN3ZY1)"><path d=" M 69.289 12.581 L 69.288 12.581 L 66.09 12.581 L 66.088 12.581 L 62.69 21.983 L 65.964 21.983 L 67.689 16.374 L 69.413 21.983 L 72.687 21.983 L 69.289 12.581 Z " fill="rgb(254,254,254)"/></g><clipPath id="_clipPath_9zEPpNw26oQ3V8yIVm6s6PLVDMNuDrsL"><path d=" M 0 0 L 0 35.303 L 141.211 35.303 L 141.211 0 L 0 0 Z " fill="rgb(255,255,255)"/></clipPath><g clip-path="url(#_clipPath_9zEPpNw26oQ3V8yIVm6s6PLVDMNuDrsL)"><path d=" M 115.321 12.581 L 115.321 12.581 L 112.119 12.581 L 108.723 21.983 L 111.997 21.983 L 113.722 16.374 L 115.446 21.983 L 118.719 21.983 L 115.321 12.581 Z " fill="rgb(254,254,254)"/></g><clipPath id="_clipPath_fpyANifbS770BKMv2ZkF8AOtkGuKoIpS"><path d=" M 0 0 L 0 35.303 L 141.211 35.303 L 141.211 0 L 0 0 Z " fill="rgb(255,255,255)"/></clipPath><g clip-path="url(#_clipPath_fpyANifbS770BKMv2ZkF8AOtkGuKoIpS)"><path d=" M 50.987 21.983 L 44.623 21.983 L 44.623 12.583 L 50.989 12.583 L 50.989 15.108 L 48.022 15.108 L 48.022 16.031 L 50.651 16.031 L 50.651 18.476 L 48.043 18.476 L 48.043 19.418 L 50.987 19.418 L 50.987 21.983 Z " fill="rgb(254,254,254)"/></g><clipPath id="_clipPath_yE6eeF0L0icHlOO9JTs4rGksHeGIHQLJ"><path d=" M 0 0 L 0 35.303 L 141.211 35.303 L 141.211 0 L 0 0 Z " fill="rgb(255,255,255)"/></clipPath><g clip-path="url(#_clipPath_yE6eeF0L0icHlOO9JTs4rGksHeGIHQLJ)"><path d=" M 79.316 19.131 L 79.316 15.522 C 82.346 15.269 82.323 19.426 79.316 19.131 Z  M 83.723 14.008 C 82.603 12.909 81.077 12.604 79.144 12.531 C 79.144 12.531 76.529 12.581 75.873 12.581 L 75.873 21.983 C 77.971 21.983 80.877 22.171 82.339 21.564 C 85.055 20.431 86.019 16.262 83.723 14.008 Z " fill="rgb(254,254,254)"/></g><clipPath id="_clipPath_HHrRvdtwktVVcitPF2nqY7JWxHOWcuIN"><path d=" M 0 0 L 0 35.303 L 141.211 35.303 L 141.211 0 L 0 0 Z " fill="rgb(255,255,255)"/></clipPath><g clip-path="url(#_clipPath_HHrRvdtwktVVcitPF2nqY7JWxHOWcuIN)"><path d=" M 91.907 21.983 L 85.543 21.983 L 85.543 12.583 L 91.909 12.583 L 91.909 15.108 L 88.941 15.108 L 88.941 16.031 L 91.571 16.031 L 91.571 18.476 L 88.961 18.476 L 88.961 19.418 L 91.907 19.418 L 91.907 21.983 Z " fill="rgb(254,254,254)"/></g><clipPath id="_clipPath_YwMm7ocWspcZmMg1dzCy7TVnS24wUtfo"><path d=" M 0 0 L 0 35.303 L 141.211 35.303 L 141.211 0 L 0 0 Z " fill="rgb(255,255,255)"/></clipPath><g clip-path="url(#_clipPath_YwMm7ocWspcZmMg1dzCy7TVnS24wUtfo)"><path d=" M 51.782 21.981 L 51.782 12.579 L 55.171 12.579 L 55.171 18.938 L 58.034 18.938 L 58.034 21.981 L 51.782 21.981 Z " fill="rgb(254,254,254)"/></g><clipPath id="_clipPath_AsDw1re4OjZr49kqcb090WXDjTJ7PcVW"><path d=" M 0 0 L 0 35.303 L 141.211 35.303 L 141.211 0 L 0 0 Z " fill="rgb(255,255,255)"/></clipPath><g clip-path="url(#_clipPath_AsDw1re4OjZr49kqcb090WXDjTJ7PcVW)"><path d=" M 119.17 21.981 L 119.17 12.579 L 122.556 12.579 L 122.556 18.938 L 125.422 18.938 L 125.422 21.981 L 119.17 21.981 Z " fill="rgb(254,254,254)"/></g><clipPath id="_clipPath_VzUwCsi4DCTAig946biYAHj7JN6D91eE"><path d=" M 0 0 L 0 35.303 L 141.211 35.303 L 141.211 0 L 0 0 Z " fill="rgb(255,255,255)"/></clipPath><g clip-path="url(#_clipPath_VzUwCsi4DCTAig946biYAHj7JN6D91eE)"><path d=" M 56.992 15.612 L 56.992 12.583 L 64.147 12.583 L 64.147 15.613 L 62.314 15.613 L 62.314 21.984 L 58.788 21.984 L 58.788 15.612 L 56.992 15.612 Z " fill="rgb(254,254,254)"/></g><clipPath id="_clipPath_toji29XpxgZmMEUj1vYxG1Q3zQFO39SU"><path d=" M 0 0 L 0 35.303 L 141.211 35.303 L 141.211 0 L 0 0 Z " fill="rgb(255,255,255)"/></clipPath><g clip-path="url(#_clipPath_toji29XpxgZmMEUj1vYxG1Q3zQFO39SU)"><path d=" M 102.964 15.612 L 102.964 12.583 L 110.118 12.583 L 110.118 15.613 L 108.284 15.613 L 108.284 21.984 L 104.761 21.984 L 104.761 15.612 L 102.964 15.612 Z " fill="rgb(254,254,254)"/></g><clipPath id="_clipPath_xPZdwP02fh6haVhZ7Nh9xX2sTAL3KJwt"><path d=" M 0 0 L 0 35.303 L 141.211 35.303 L 141.211 0 L 0 0 Z " fill="rgb(255,255,255)"/></clipPath><g clip-path="url(#_clipPath_xPZdwP02fh6haVhZ7Nh9xX2sTAL3KJwt)"><path d=" M 126.464 13.132 C 126.637 13.132 126.942 13.165 126.942 12.944 C 126.942 12.8 126.751 12.775 126.6 12.775 L 126.231 12.775 L 126.231 13.132 L 126.464 13.132 Z  M 127.116 13.97 L 126.881 13.97 L 126.464 13.328 L 126.231 13.328 L 126.231 13.97 L 126.035 13.97 L 126.035 12.58 L 126.64 12.58 C 126.893 12.58 127.136 12.648 127.136 12.948 C 127.136 13.221 126.944 13.321 126.697 13.328 L 127.116 13.97 Z  M 127.593 13.283 C 127.593 12.683 127.094 12.209 126.51 12.209 C 125.928 12.209 125.43 12.683 125.43 13.283 C 125.43 13.883 125.928 14.357 126.51 14.357 C 127.094 14.357 127.593 13.883 127.593 13.283 Z  M 125.233 13.283 C 125.233 12.577 125.797 12.012 126.51 12.012 C 127.224 12.012 127.788 12.577 127.788 13.283 C 127.788 13.99 127.224 14.552 126.51 14.552 C 125.797 14.552 125.233 13.99 125.233 13.283 Z " fill="rgb(254,254,254)"/></g></g></svg>